<svg width="224" height="224" viewBox="0 0 224 224" fill="none" xmlns="http://www.w3.org/2000/svg">
<path d="M100.113 115.195C100.044 118.15 97.9485 120.932 93.8258 120.932C90.3558 120.932 87.47 118.39 87.2982 115.092H90.9742C91.043 116.741 92.2111 117.669 94.1693 117.6C95.9215 117.531 96.746 115.985 96.7804 114.851C96.8147 113.477 96.5742 112.206 92.6233 110.797C89.2908 109.664 87.6761 108.221 87.6761 104.957C87.6761 101.693 90.7337 99.7006 93.3791 99.6662C97.7767 99.5975 99.8037 102.415 99.735 104.785H96.1276C96.0245 103.583 94.8221 102.724 93.5509 102.724C92.2454 102.724 90.9742 103.617 90.9742 105.301C90.9742 107.156 92.108 107.809 94.7877 108.771C99.4945 110.282 100.147 112.515 100.113 115.195ZM60.5693 115.195C60.5006 118.15 58.4049 120.932 54.2822 120.932C50.8123 120.932 47.9264 118.39 47.7546 115.092H51.4307C51.4994 116.741 52.6675 117.669 54.6258 117.6C56.3779 117.531 57.2025 115.985 57.2368 114.851C57.2712 113.477 57.0307 112.206 53.0798 110.797C49.7472 109.629 48.0982 108.221 48.0982 104.923C48.0982 101.659 51.1558 99.6662 53.8012 99.6318C58.1988 99.5631 60.2258 102.38 60.1571 104.751H56.5497C56.4466 103.548 55.2442 102.69 53.973 102.69C52.6675 102.69 51.3963 103.583 51.3963 105.266C51.3963 107.121 52.5301 107.774 55.2098 108.736C59.9509 110.282 60.638 112.515 60.5693 115.195ZM211.769 100.182C212.697 100.182 213.487 100.937 213.487 101.865C213.487 102.793 212.731 103.548 211.804 103.548C211.769 103.548 211.735 103.548 211.701 103.548C210.739 103.548 209.983 102.793 209.948 101.865V101.831C210.017 100.903 210.807 100.182 211.769 100.182ZM211.735 100.525C211.014 100.525 210.429 101.109 210.429 101.831V101.865C210.429 102.621 210.979 103.239 211.735 103.239C212.491 103.274 213.04 102.655 213.04 101.899C213.04 101.144 212.525 100.525 211.735 100.525ZM211.46 102.758H211.048V101.075C211.254 101.04 211.46 101.006 211.701 101.006C211.907 101.006 212.113 101.04 212.285 101.144C212.388 101.247 212.456 101.384 212.456 101.521C212.422 101.728 212.285 101.865 212.113 101.934V101.968C212.285 102.037 212.388 102.14 212.422 102.38C212.491 102.655 212.491 102.758 212.56 102.793H212.147C212.079 102.655 212.044 102.518 212.01 102.38C211.975 102.209 211.872 102.105 211.666 102.105H211.494L211.46 102.758ZM211.494 101.831H211.666C211.872 101.831 212.079 101.762 212.079 101.59C212.079 101.418 211.975 101.315 211.735 101.315C211.666 101.315 211.598 101.315 211.529 101.35L211.494 101.831ZM152.506 100.25H149.379V120.245H160.339V117.359H152.677L152.506 117.222V100.25ZM133.575 100.25H130.449V120.245H141.409V117.359H133.747L133.575 117.222V100.25ZM72.5595 103.274L72.3877 103.136H67.0626V100.25H81.1485V103.136H75.8233L75.6515 103.274V120.245H72.5252V103.274H72.5595ZM179.99 100.25H169.031V120.245H179.99V117.359H172.329L172.157 117.222V111.622L172.329 111.485H178.719V108.564H172.329L172.157 108.393V103.274L172.329 103.136H179.99V100.25ZM120.177 100.25H109.217V120.245H120.177V117.359H112.515L112.378 117.222V111.622L112.515 111.485H118.906V108.564H112.515L112.378 108.393V103.274L112.515 103.136H120.177V100.25ZM39.7153 100.285H28.7558V120.245H39.7153V117.394H32.0196L31.8479 117.222V111.622L32.0196 111.485H38.4098V108.564H32.0196L31.8479 108.427V103.308L32.0196 103.136H39.681V100.285H39.7153ZM193.355 108.564L193.217 108.427V103.308L193.355 103.17H195.347C197.683 103.17 198.474 104.648 198.474 105.816C198.474 108.152 196.962 108.633 195.347 108.599L193.355 108.564ZM194.866 100.285C193.664 100.285 190.606 100.285 190.056 100.388V120.245H193.183V111.759L193.32 111.622H194.832C196.24 111.622 196.756 112.55 197.409 113.958C198.267 115.848 198.68 117.531 199.47 120.28H202.906C202.596 119.249 201.428 115.745 200.432 113.031C199.848 111.416 199.058 110.557 198.164 110.317V110.248C199.813 109.595 201.6 108.461 201.703 105.507C201.772 103.995 201.428 102.69 200.466 101.762C199.264 100.594 197.374 100.25 194.866 100.285ZM11.5092 117.359H10.6503L10.5129 117.188V111.588L10.6503 111.45H12.6086C14.8074 111.45 16.319 112.515 16.319 114.508C16.319 116.088 15.5975 117.325 12.7804 117.325C12.265 117.394 11.8528 117.359 11.5092 117.359ZM10.6503 108.564L10.5129 108.427V103.308L10.6503 103.17H12.6086C14.9448 103.17 15.6663 104.339 15.6663 105.747C15.6663 107.465 14.9791 108.599 12.7117 108.599C12.6773 108.564 10.6503 108.564 10.6503 108.564ZM12.4025 100.285H12.2307C11.0282 100.285 7.97055 100.285 7.35215 100.388V120.211C7.97055 120.314 11.0626 120.348 12.3681 120.348C15.5632 120.348 16.7656 120.005 18.0025 118.837C19.0331 117.909 19.5141 116.501 19.5141 114.783C19.5141 111.828 18.1399 110.488 16.3534 109.801V109.732C17.6933 109.011 18.7239 107.809 18.7239 105.301C18.7239 103.72 18.1742 102.586 17.2466 101.728C16.1129 100.663 14.5325 100.285 12.4025 100.285Z" fill="white"/>
</svg>
