<svg width="224" height="224" viewBox="0 0 224 224" fill="none" xmlns="http://www.w3.org/2000/svg">
<path fill-rule="evenodd" clip-rule="evenodd" d="M165.076 110.61C163.668 108.773 161.701 107.443 159.471 106.82L159.389 106.798H159.302C159.279 106.798 159.244 106.792 159.204 106.792C158.778 106.74 158.346 106.84 157.986 107.075C157.627 107.31 157.361 107.664 157.237 108.076V108.082C156.976 109.022 157.515 109.992 158.473 110.284L158.49 110.289C161.525 111.138 163.643 113.907 163.648 117.032C163.648 120.891 160.474 124.032 156.569 124.032C155.634 124.035 154.706 123.853 153.842 123.495C152.977 123.137 152.193 122.61 151.533 121.946C151.365 121.779 151.164 121.647 150.944 121.557C150.724 121.468 150.489 121.422 150.251 121.424C149.775 121.422 149.316 121.607 148.974 121.94C148.626 122.272 148.429 122.72 148.429 123.201C148.429 123.683 148.62 124.13 148.969 124.463C150.988 126.481 153.686 127.587 156.569 127.587C162.47 127.587 167.269 122.84 167.269 117.009C167.265 114.692 166.494 112.442 165.076 110.61ZM150.645 113.22C151.603 111.775 153.053 110.727 154.725 110.272C155.182 110.148 155.572 109.852 155.815 109.447C156.065 109.028 156.128 108.547 156.001 108.087L155.995 108.065C155.74 107.285 155.038 106.763 154.237 106.763C154.097 106.763 153.953 106.781 153.784 106.826L153.773 106.832C151.245 107.504 149.055 109.087 147.623 111.276C147.355 111.671 147.263 112.147 147.367 112.623C147.466 113.082 147.744 113.483 148.144 113.753C148.434 113.942 148.788 114.045 149.137 114.045C149.746 114.033 150.327 113.725 150.645 113.22ZM137.282 106.23H132.889C131.901 106.23 131.097 107.018 131.097 107.987C131.097 108.955 131.901 109.744 132.889 109.744H137.282C138.89 109.744 140.206 111.016 140.206 112.587V120.612C140.206 122.177 138.896 123.456 137.288 123.456H132.878C131.269 123.456 129.954 122.183 129.954 120.612L129.949 98.752V98.734C129.935 98.2685 129.74 97.8269 129.405 97.5031C129.071 97.1792 128.623 96.9988 128.157 97C127.169 97 126.365 97.788 126.365 98.757L126.371 120.617C126.371 124.12 129.288 126.97 132.877 126.97H137.288C140.872 126.97 143.789 124.115 143.789 120.612V112.587C143.789 109.079 140.866 106.23 137.282 106.23ZM116.58 106.06C115.739 106.057 114.906 106.223 114.131 106.549C113.356 106.876 112.655 107.355 112.069 107.959C111.484 107.355 110.783 106.876 110.007 106.55C109.232 106.224 108.399 106.057 107.558 106.061C104.092 106.061 101.274 108.865 101.274 112.311L101.28 125.201C101.291 125.664 101.483 126.104 101.814 126.427C102.145 126.751 102.59 126.932 103.053 126.932C103.516 126.932 103.96 126.751 104.292 126.427C104.623 126.104 104.814 125.664 104.825 125.201L104.819 112.311C104.819 111.584 105.107 110.886 105.62 110.372C106.134 109.857 106.831 109.567 107.558 109.567C108.285 109.566 108.983 109.854 109.497 110.367C110.012 110.881 110.302 111.578 110.302 112.305L110.307 125.196C110.318 125.659 110.51 126.099 110.841 126.422C111.172 126.746 111.617 126.927 112.08 126.927C112.543 126.927 112.987 126.746 113.319 126.422C113.65 126.099 113.841 125.659 113.852 125.196L113.847 112.305C113.847 111.578 114.135 110.881 114.648 110.366C115.162 109.851 115.858 109.562 116.585 109.561C117.312 109.56 118.01 109.848 118.524 110.362C119.039 110.875 119.329 111.572 119.329 112.299L119.335 125.19C119.346 125.653 119.538 126.093 119.869 126.416C120.2 126.74 120.645 126.921 121.108 126.921C121.571 126.921 122.015 126.74 122.347 126.416C122.678 126.093 122.869 125.653 122.88 125.19L122.874 112.3C122.869 108.86 120.045 106.06 116.58 106.06ZM90.9413 106.06H86.8313C83.2673 106.06 80.3663 108.934 80.3663 112.46V120.576C80.3663 124.102 83.2673 126.97 86.8363 126.97H90.9483C91.9313 126.97 92.7303 126.176 92.7303 125.201C92.7303 124.226 91.9303 123.433 90.9483 123.433H86.8363C85.2373 123.433 83.9303 122.152 83.9303 120.571V112.454C83.9303 110.878 85.2323 109.592 86.8303 109.592H90.9433C92.3703 109.592 93.5303 110.742 93.5303 112.154C93.5277 112.837 93.2543 113.49 92.7703 113.972C92.2862 114.453 91.6309 114.722 90.9483 114.721H86.7513C85.7683 114.721 84.9693 115.515 84.9693 116.49C84.9693 117.465 85.7693 118.258 86.7513 118.258H90.9483C94.3413 118.258 97.0933 115.52 97.0933 112.154C97.0933 108.787 94.3353 106.061 90.9433 106.061L90.9413 106.06ZM76.4643 106.06H72.5773V106.117C69.9023 106.417 67.8193 108.63 67.8193 111.313L67.8253 125.203C67.8253 126.177 68.6383 126.97 69.6353 126.97C70.6333 126.97 71.4453 126.177 71.4453 125.204L71.4403 111.314C71.4403 110.368 72.2293 109.598 73.1983 109.593H76.4643C77.4623 109.593 78.2743 108.8 78.2743 107.827C78.2743 106.847 77.4623 106.054 76.4643 106.06Z" fill="white"/>
<path fill-rule="evenodd" clip-rule="evenodd" d="M62.041 122.401C60.517 120.875 59.643 118.789 59.643 116.687L59.637 108.031V108.015C59.602 107.053 58.786 106.27 57.807 106.27C56.811 106.27 56 107.053 56 108.015L56.006 116.67C56.006 119.723 57.222 122.608 59.423 124.8L60.987 126.349C61.3252 126.677 61.7748 126.866 62.2461 126.877C62.7173 126.889 63.1754 126.722 63.529 126.41L63.541 126.399C63.894 126.075 64.097 125.622 64.102 125.152C64.1068 124.927 64.0645 124.703 63.9779 124.495C63.8913 124.287 63.7622 124.099 63.599 123.944L62.041 122.401ZM57.958 102.915C59.035 102.915 59.915 102.065 59.915 101.025C59.915 99.985 59.035 99.135 57.958 99.135C56.88 99.135 56 99.985 56 101.025C56 102.065 56.88 102.915 57.958 102.915Z" fill="white"/>
</svg>
