<svg width="216" height="17" viewBox="0 0 216 17" fill="none" xmlns="http://www.w3.org/2000/svg">
<path d="M3.96777 8.89716C11.0664 8.89716 17.8518 7.21894 24.8358 6.13522C29.4022 5.42663 34.069 5.24343 38.6636 4.74522C42.9148 4.28425 47.1249 3.7594 51.4082 3.69821C54.4548 3.65469 57.4493 3.04834 60.5244 3.04834C64.4018 3.04834 67.9673 3.48152 71.8069 4.00509C78.4214 4.90708 85.0657 5.48717 91.682 6.46015C95.0768 6.95939 98.669 6.62262 102.098 6.62262C105.375 6.62262 108.581 7.27249 111.846 7.27249C115.42 7.27249 118.995 7.27249 122.569 7.27249C124.218 7.27249 124.28 7.46156 122.551 8.06677C120.164 8.9021 117.511 9.68577 115.041 10.2149C111.051 11.07 106.708 12.2483 102.946 13.7531C102.08 14.0995 104.812 13.7712 105.744 13.7712C108.217 13.7712 110.266 13.4712 112.676 12.8686C116.349 11.9505 119.732 11.8216 123.544 11.8216C126.637 11.8216 129.729 11.8216 132.822 11.8216C136.381 11.8216 140.059 12.0738 143.22 10.1247C144.775 9.16566 145.987 7.6352 147.914 7.59742C149.099 7.57419 150.201 7.4672 151.38 7.3447C153.656 7.1082 156.023 7.27249 158.312 7.27249C163.892 7.27249 169.284 8.89716 174.883 8.89716C180.852 8.89716 186.822 8.89716 192.791 8.89716C197.062 8.89716 201.379 8.57223 205.68 8.57223C206.682 8.57223 212.992 9.08046 212.901 8.89716" stroke="#D89121" stroke-opacity="0.56" stroke-width="6" stroke-linecap="round"/>
</svg>
