<svg width="227" height="227" viewBox="0 0 227 227" fill="none" xmlns="http://www.w3.org/2000/svg">
<path d="M125.112 74.9026V92.6042C125.112 101.994 129.783 105.483 135.941 105.483C142.459 105.483 147.335 101.737 147.335 92.5015V74.9026H143.383V92.7581C143.383 99.3769 140.458 102.302 136.044 102.302C132.041 102.302 129.013 99.4282 129.013 92.7581V74.9026H125.112Z" fill="white"/>
<path d="M176.435 105.072V92.1936C176.435 87.2167 176.384 83.5737 176.178 79.7769L176.332 79.7256C177.821 82.958 179.822 86.3957 181.926 89.7821L191.472 105.072H195.424V75.0052H191.78V87.6272C191.78 92.2963 191.883 95.9392 192.242 99.9413L192.037 99.9926C190.651 96.8628 188.855 93.7329 186.699 90.1926L177.102 74.9539H172.791V105.021H176.435V105.072Z" fill="white"/>
<path d="M190.446 131.702C190.446 127.7 187.623 125.75 183.363 125.75C181.67 125.75 180.387 125.904 179.719 126.058V137.756C180.541 137.961 181.67 138.064 182.953 138.064C187.623 138.115 190.446 135.755 190.446 131.702ZM194.346 131.291C194.346 134.011 193.525 136.166 191.986 137.705C189.933 139.86 186.597 140.989 182.799 140.989C181.618 140.989 180.541 140.937 179.668 140.732V152.841H175.768V123.133C177.667 122.774 180.079 122.517 183.209 122.517C187.059 122.517 189.881 123.39 191.626 125.031C193.371 126.417 194.346 128.623 194.346 131.291Z" fill="white"/>
<path d="M145.538 137.14C145.589 129.957 141.535 125.545 133.323 125.545C131.322 125.545 129.782 125.699 128.755 125.955V149.762C129.731 149.916 131.168 149.916 132.707 149.916C141.022 149.968 145.538 145.299 145.538 137.14ZM149.644 137.038C149.644 141.963 148.104 145.966 145.333 148.736C142.459 151.558 137.84 153.046 131.989 153.046C129.166 153.046 126.908 152.944 124.906 152.687V123.082C127.318 122.723 130.141 122.466 133.221 122.466C138.815 122.466 142.767 123.697 145.435 126.16C148.053 128.623 149.644 132.163 149.644 137.038Z" fill="white"/>
<path d="M88.4159 133.754C86.3117 134.318 84.0021 134.524 81.9492 135.242C85.4392 132.215 85.2852 127.597 87.5947 124.005C88.3646 122.979 88.9804 121.953 89.8016 120.978C88.3646 123.851 88.9804 127.546 87.3381 130.316C86.7222 131.394 85.7984 132.471 84.8233 133.343C85.1312 133.343 85.4392 133.036 85.6958 132.882C88.3646 130.214 91.8545 129.495 94.7286 127.34C95.8577 126.417 96.9355 125.237 97.4487 123.903C96.9355 128.315 92.5217 132.42 88.4159 133.754Z" fill="white"/>
<path d="M98.0135 115.95C96.7305 117.797 95.1395 119.541 93.959 121.388C94.113 119.9 94.267 118.053 93.7024 116.668C92.676 113.641 91.8035 110.562 91.5469 107.227L91.5982 105.944C92.368 109.331 95.704 111.691 95.4987 115.488C95.55 116.411 95.2934 117.181 95.1395 118.002L95.1908 118.053L95.3448 117.899C95.858 116.052 96.0633 114.051 96.8331 112.307C97.9109 109.793 99.2966 107.227 98.7321 104.2C100.323 107.792 99.8098 112.563 98.0135 115.95Z" fill="white"/>
<path d="M95.9606 96.6576C98.1675 99.6336 98.6294 104.354 97.0384 107.792C96.4225 109.228 96.0119 110.768 95.8066 112.358C95.704 112.102 95.6527 111.691 95.55 111.383C94.6775 108.048 91.4955 105.688 90.2124 102.507C89.8019 101.481 89.4426 100.403 89.2373 99.2744C90.623 101.84 94.0616 103.174 94.9855 105.996C95.3447 106.714 95.3447 107.586 95.6013 108.356C95.6527 108.356 95.704 108.305 95.704 108.253C95.2934 105.329 95.396 102.302 95.8066 99.4283C95.8066 97.8891 95.6527 96.3498 94.7802 95.1697C95.2934 95.5288 95.55 96.1446 95.9606 96.6576Z" fill="white"/>
<path d="M94.3694 96.0419C94.934 98.6587 94.1128 101.173 94.626 103.79C93.189 101.019 90.2123 99.6849 88.108 97.4786C86.9276 96.1446 86.3631 94.554 86.1064 92.8095C87.2869 95.6828 90.4689 96.2985 92.3165 98.71C92.9324 99.2744 93.1377 100.044 93.5482 100.66L93.5996 100.608C92.5218 98.3508 92.1625 95.8367 91.444 93.4252C91.0847 92.399 90.3149 91.3728 89.3398 90.7058C91.8033 91.2702 93.9075 93.7843 94.3694 96.0419Z" fill="white"/>
<path d="M87.9542 90.0901C89.7505 91.732 90.5717 93.8357 91.1362 95.9907L91.4442 96.709C88.8267 94.8106 86.4145 92.2451 84.7209 89.5771L82.668 87.4734C84.4643 88.243 86.4145 88.7048 87.9542 90.0901Z" fill="white"/>
<path d="M46.2799 87.8325C44.4323 89.4231 43.2005 91.4755 41.8661 93.3226C40.6344 94.8105 39.0947 95.8367 37.709 97.1194C38.4275 95.5802 38.4788 93.733 39.5053 92.3477C41.045 89.731 43.8164 88.8074 46.2799 87.8325Z" fill="white"/>
<path d="M36.3231 93.3738C37.1955 92.2963 38.3247 91.5266 39.6077 91.1675C37.1442 92.8607 37.2982 95.8879 36.5284 98.402C36.2717 99.3256 35.8612 100.198 35.6559 101.121L35.7072 101.173C36.1178 100.095 36.8363 99.0691 37.7088 98.1968C39.4538 96.6062 42.0199 95.58 42.8924 93.2198C42.8411 96.5036 40.0696 99.1204 37.4522 100.967C36.3744 101.942 35.2966 103.02 34.7321 104.251C34.6807 103.43 34.8347 102.558 34.7834 101.686C34.5268 98.8125 34.2702 95.5287 36.3231 93.3738Z" fill="white"/>
<path d="M31.3449 103.277C31.2936 100.352 32.474 97.9404 34.219 95.7854C34.2703 95.7854 34.3217 95.7341 34.373 95.7341C32.474 98.6074 34.065 102.199 33.9624 105.483L33.7058 108.818C33.7571 108.818 33.7571 108.921 33.8084 108.921C33.9111 108.561 33.9624 108.151 34.0137 107.792C34.4756 105.124 36.7851 103.174 38.8381 101.327C39.2486 100.865 39.6592 100.352 39.8645 99.7875C39.7105 101.122 39.3 102.456 38.7354 103.738C37.1444 106.817 34.219 109.382 33.6545 112.923C33.4492 109.434 31.1396 106.868 31.3449 103.277Z" fill="white"/>
<path d="M29.9595 107.433C30.1648 106.509 30.3188 105.585 30.7293 104.713C29.9595 108.561 32.577 111.383 33.4495 114.718C33.8087 115.95 33.9114 117.335 34.4246 118.515C34.4759 118.515 34.5272 118.515 34.5272 118.464C33.2442 114.872 35.0918 111.589 36.9394 108.818C37.4013 108.048 37.6579 107.227 37.8632 106.355C38.0685 107.946 37.6579 109.844 37.4013 111.486C36.9394 113.641 36.2722 115.642 35.7077 117.694C35.3484 118.977 35.3997 120.465 35.605 121.799L35.3997 121.645C34.0653 119.131 31.3452 117.233 30.5754 114.462C29.9082 112.307 29.4976 109.793 29.9595 107.433Z" fill="white"/>
<path d="M29.8058 114.975C30.1137 119.08 34.5274 121.235 36.5804 124.621C37.0423 125.339 37.5042 126.058 38.12 126.673C38.0174 126.263 37.6068 125.852 37.4528 125.442C36.7343 124.005 36.4777 122.312 36.6317 120.619C36.837 118.515 37.7095 116.565 37.3502 114.359C39.1465 118.259 38.5819 123.082 39.6084 127.289C39.865 128.213 40.3782 129.033 40.7375 129.906C37.0423 127.392 32.0126 124.98 30.3703 120.414C29.7544 118.772 29.6518 116.822 29.8058 114.975Z" fill="white"/>
<path d="M32.0127 124.416C34.0656 129.085 39.2492 129.444 42.6878 132.317C43.3037 132.882 43.9709 133.343 44.6894 133.703L44.7407 133.651C43.9709 132.933 43.0471 132.112 42.4825 131.188C40.4809 128.366 41.1481 124.416 39.6598 121.388C41.0455 123.03 42.2772 124.724 43.0984 126.622C44.3302 129.649 44.7921 133.138 47.6661 135.396C44.5868 134.37 40.9429 134.677 38.2227 132.779C35.246 130.932 32.5772 127.802 32.0127 124.416Z" fill="white"/>
<path d="M37.2988 133.087C40.5835 136.833 45.9724 135.601 50.3861 136.576C51.002 136.679 51.5666 136.935 52.2337 136.833C51.7205 136.473 51.002 136.525 50.4375 136.217C46.9988 134.985 46.4856 131.291 44.5867 128.777C46.9988 130.368 49.0004 132.523 51.2073 134.575C52.7983 135.96 54.6972 136.627 56.6988 137.038C56.2369 137.192 55.5697 137.14 55.0565 137.294C51.4639 138.167 47.4094 139.655 43.6115 138.321C41.148 137.5 38.5819 135.55 37.2988 133.087Z" fill="white"/>
<path d="M82.1029 141.861C78.4077 143.246 74.5072 141.81 71.5818 139.603C70.4014 138.834 69.3749 137.756 67.8352 137.859C67.2707 137.859 66.7574 137.859 66.2955 138.013C69.1183 139.347 71.7358 141.143 74.1479 143.451C73.7373 143.913 73.2241 144.324 72.7109 144.734C70.4014 142.22 67.8352 139.86 64.9611 138.474C64.3966 138.526 63.8834 138.885 63.3701 139.141C61.0606 140.629 58.7511 142.528 57.0061 144.837L55.5178 143.605C57.8786 141.194 60.5474 139.347 63.4215 138.013C60.5987 137.14 58.7511 139.501 56.5955 140.681C54.0807 142.425 50.4881 143.246 47.4601 142.066C45.8178 141.45 44.2781 140.527 43.0977 139.09C45.4585 140.732 48.9998 140.886 51.7199 139.809C55.3638 138.218 59.1104 136.217 63.4728 137.192C64.14 137.192 64.8072 137.91 65.4744 137.294C68.7077 136.473 72.4029 137.038 75.2257 138.526L78.0998 139.655C80.7686 140.629 84.2585 140.373 86.5167 138.731C85.3876 140.168 83.7966 141.245 82.1029 141.861Z" fill="white"/>
<path d="M86.1064 138.013C81.9493 139.603 77.7408 137.654 73.7376 136.987L72.9678 136.884C74.8667 136.473 76.7143 135.858 78.254 134.524C80.5122 132.369 82.5138 130.162 84.9773 128.469C83.1297 130.829 82.9244 134.216 79.8963 135.755C79.1265 136.268 78.2027 136.32 77.3815 136.73C78.5106 136.73 79.5371 136.371 80.6149 136.268C84.7207 135.601 89.3911 136.268 92.2651 132.779C91.1874 135.088 88.5186 137.14 86.1064 138.013Z" fill="white"/>
<path d="M93.7024 126.263C92.06 127.34 90.3664 128.367 88.7754 129.547V129.393C91.1876 125.339 90.0071 119.798 91.4955 115.385L92.06 113.897C91.7521 116.668 92.9325 119.028 92.8812 121.799C92.7786 123.492 92.2653 124.98 91.3928 126.314H91.5468C92.7272 124.775 93.6511 123.082 95.0368 121.594C97.1923 119.49 99.3992 117.386 99.6558 114.513C100.374 119.285 97.7055 123.544 93.7024 126.263Z" fill="white"/>
<path d="M88.3136 111.229C88.057 117.027 85.9014 122.055 82.1036 126.365L82.0009 126.571C81.2311 125.698 80.2046 124.621 79.2295 123.851C79.794 123.492 80.2559 122.774 80.6665 122.261C83.0274 119.028 84.4131 115.385 84.6184 111.281L84.5157 110.921L84.721 111.075H88.2623L88.4676 110.973L88.3136 111.229ZM65.5776 133.908L65.321 134.062C65.4237 132.779 65.4237 131.445 65.321 130.162C65.9369 130.368 66.6041 130.162 67.2713 130.162L69.1702 129.803C70.094 130.008 70.7612 131.496 71.839 130.573C72.1983 130.162 72.8141 130.162 73.0707 129.598C73.6866 129.393 73.8406 128.777 74.2512 128.366C74.6618 127.186 75.9961 127.032 76.766 126.212C77.3305 125.698 78.1004 125.237 78.4596 124.57L78.511 124.877L81.1284 127.392C76.7147 131.394 71.5311 133.651 65.5776 133.908ZM65.5263 126.006C65.9882 126.212 66.7581 125.801 67.0147 126.314C66.8607 126.622 66.6554 126.879 66.7581 127.186C66.9633 127.648 67.22 128.264 67.7845 128.315C67.9385 128.52 68.1438 128.572 68.3491 128.623C67.3739 128.777 66.2961 128.726 65.3723 129.033C65.475 128.007 65.3723 126.981 65.3723 125.955L65.167 125.698C65.321 125.75 65.4237 125.904 65.5263 126.006ZM64.6025 119.695C64.3459 119.747 64.0893 119.695 63.884 119.593C63.7813 119.593 63.8327 119.439 63.7813 119.387C64.1406 119.387 64.2946 118.977 64.7051 119.028C64.9104 118.823 64.9618 118.515 65.2697 118.361C65.167 118.053 65.5776 118.259 65.629 118.053C65.7316 117.951 65.8856 117.848 66.0395 117.951C66.2961 118.31 66.8094 118.156 67.066 118.566C67.1686 118.618 67.22 118.464 67.22 118.413V118.259C67.6305 118.207 67.8358 118.772 68.2464 118.413C68.3491 118.31 68.2977 118.156 68.2464 118.053C68.1951 118.053 68.1438 118.002 68.1438 117.951C68.4517 117.797 68.6057 118.361 68.9649 118.207C69.2729 117.951 69.4268 117.694 69.8374 117.694L69.9401 117.797C69.9914 118.515 69.3755 118.977 68.811 119.336C68.4517 119.49 67.7845 119.439 67.8358 120.003C67.4252 120.362 67.066 119.798 66.5528 119.952C66.2961 119.849 66.5528 119.49 66.1935 119.439C65.629 119.593 65.0131 119.131 64.6025 119.695ZM61.6258 133.754C56.6475 133.087 52.285 130.932 48.4358 127.597L51.002 125.031L51.0533 124.877C54.5946 128.264 58.8544 130.008 63.6787 130.316L64.0379 130.214L63.9353 130.419V133.754L64.1406 134.062C63.3194 133.805 62.3956 133.908 61.6258 133.754ZM44.176 122.004C42.3797 118.669 41.3533 115.077 41.148 111.127H44.5866L44.9459 111.024C44.8946 111.229 44.8946 111.435 44.8946 111.742V111.691C44.7919 111.742 44.9459 111.794 44.9459 111.896C44.9972 113.23 45.2538 114.462 45.5618 115.642L45.7157 115.898C45.4591 115.642 45.3565 115.385 45.1512 115.129C44.8432 115.18 44.5353 115.231 44.33 115.437C44.484 115.796 44.1247 115.693 43.9708 115.796C43.9194 115.693 43.8168 115.591 43.7141 115.539C43.4575 115.539 43.2009 115.591 43.0469 115.847C43.0983 116.052 42.893 116.104 42.7903 116.258C42.739 116.822 42.5337 117.54 42.9443 118.002C42.9443 118.413 43.1496 118.772 43.4575 119.028C43.5602 119.028 43.6628 118.977 43.7141 118.926C44.0734 119.182 44.2274 119.798 44.7406 119.644C44.8946 119.593 44.8432 119.439 44.8946 119.285C45.1512 119.541 45.2538 120.054 45.767 120.003C45.8697 120.106 45.9723 120.362 46.1776 120.362C46.6909 120.208 46.5369 120.978 46.8961 121.183C47.2041 121.388 47.3581 121.799 47.7686 121.594L47.9226 121.388C48.0766 121.491 47.9226 121.748 48.0766 121.85C48.2819 122.261 48.6924 122.517 49.103 122.62C49.4623 123.03 49.8215 123.492 50.2321 123.8L49.9242 123.903L47.4607 126.468C46.3316 125.134 45.0485 123.646 44.176 122.004ZM41.302 107.535C41.9178 102.404 44.1247 97.9403 47.666 93.9895L47.7686 94.3487C48.5898 95.1696 49.4623 96.0419 50.2835 96.8115C49.5649 97.2733 49.2057 98.0942 48.6411 98.7099C46.4342 101.84 45.1512 105.38 44.9459 109.331L45.0485 109.793C43.8168 109.69 42.4824 109.69 41.1993 109.793C41.2506 109.023 41.148 108.253 41.302 107.535ZM50.5401 91.4754C54.4919 88.6534 58.9057 86.9602 63.884 86.755L63.73 87.0628L63.7813 90.0387L63.884 90.3466C59.0596 90.5518 54.8512 92.3989 51.2073 95.6827L51.1559 95.8366C50.3348 94.9644 49.411 93.9382 48.4358 93.2199H48.3332C49.103 92.7581 49.7702 91.9885 50.5401 91.4754ZM63.9353 100.249C63.2681 100.095 62.7036 100.403 62.0877 100.454C60.702 100.814 59.4702 101.583 58.2898 102.404C58.2385 102.507 58.1872 102.609 58.0845 102.661C57.212 101.891 56.3909 100.865 55.467 100.198C57.8792 98.2482 60.5993 96.9141 63.73 96.7089L63.9353 96.6063C63.7813 97.7864 63.7813 99.0691 63.9353 100.249ZM62.9602 104.251C62.9088 104.097 63.1141 103.892 62.9088 103.79C62.3443 104.046 62.5496 104.662 62.1903 105.072C62.139 105.38 61.7284 105.226 61.5231 105.431C61.3692 105.175 61.0612 105.226 60.8559 105.329C60.548 105.329 60.4967 104.713 60.1887 105.021C60.0861 105.124 60.1374 105.329 59.9321 105.277C59.8808 105.175 59.7782 105.175 59.7268 105.124C59.7268 104.918 60.0348 104.97 59.9321 104.764C59.7268 104.354 59.2136 104.405 58.9057 104.149H58.5977C60.0348 102.609 61.8824 101.942 63.884 101.635C63.884 102.507 63.7813 103.533 64.0893 104.354C63.7813 103.943 63.3194 104.405 62.9602 104.251ZM59.5215 114.308C59.7268 114.103 59.9321 113.795 60.0348 113.487L60.4454 113.692C60.0348 113.743 59.8295 114.154 59.5215 114.308ZM63.4734 118.053C63.3194 118.361 63.4221 118.772 63.3708 119.08C61.7284 118.772 60.2401 118.105 58.9057 117.027C59.6755 116.206 60.6506 115.437 61.2152 114.564C61.2665 114.975 61.7797 115.129 62.0877 115.334C62.7549 115.642 63.5247 116.104 64.2946 115.796C64.2432 115.847 64.1919 115.898 64.1406 115.95C64.3459 116.155 63.9866 116.36 64.2432 116.565C64.2946 116.719 64.0893 116.719 64.0893 116.822C64.1919 117.027 64.0379 117.438 64.3972 117.54C64.4999 117.643 64.3972 117.848 64.2432 117.848C63.9353 117.797 63.6274 117.797 63.4734 118.053ZM55.8263 104.713C55.467 104.918 55.2104 105.277 55.0051 105.585C54.6972 105.791 54.3379 105.739 54.0813 106.098C54.0813 106.252 54.2353 106.406 54.0813 106.509C53.7734 106.765 53.2088 106.458 53.0549 106.971C53.0036 107.432 52.439 107.689 52.4903 108.202C52.1824 108.407 52.2337 108.766 52.285 109.074C52.439 109.28 52.2337 109.639 52.4903 109.793C52.0284 109.741 51.3612 109.639 50.9506 109.844C51.2073 109.28 51.1046 108.613 51.2586 107.997C51.7205 105.431 52.9009 103.174 54.5946 101.121C55.467 101.942 56.3909 102.969 57.3147 103.687C56.5961 103.687 56.5961 104.713 55.8263 104.713ZM54.1327 119.336L54.03 118.566C53.3115 117.951 53.5681 116.822 53.4141 116.052C52.9009 115.642 53.3115 115.026 52.9522 114.564C52.9522 113.846 51.8231 113.59 52.1824 112.82C52.0284 112.615 51.8745 112.358 52.0284 112.102C52.2337 111.845 52.7469 112.102 52.9009 111.742L53.0036 111.075C53.2602 110.921 53.6194 111.281 53.7734 110.921C54.03 110.306 52.8496 109.536 53.876 109.228C54.2353 109.177 54.6459 109.126 54.7999 109.536C54.8512 109.998 55.0051 110.511 54.7999 110.973C55.1078 111.075 54.8512 111.383 54.8512 111.588C54.6459 111.691 54.4919 111.896 54.2353 111.794C54.1327 111.64 53.9787 111.332 53.7221 111.383C53.5168 111.64 53.7734 111.896 53.7734 112.204C53.7221 112.358 53.7734 112.563 53.6708 112.717C53.5681 112.666 53.5168 112.615 53.3628 112.615C53.1575 112.717 53.3115 112.974 53.3628 113.076C53.5681 113.23 53.7221 113.436 54.03 113.436L54.1327 113.282C54.0813 112.871 54.2866 112.563 54.2866 112.204L54.6459 112.409C54.9538 113.949 55.6723 115.334 56.5448 116.668L57.0067 117.13C55.8776 118.105 54.7999 119.285 53.8247 120.362C53.8247 120.311 53.7734 120.106 53.6194 120.208C53.5168 119.747 54.2866 119.901 54.1327 119.336ZM62.0364 123.749L62.6522 124.005C60.4967 123.492 58.1872 122.723 56.3395 121.183C56.0316 120.978 55.8263 120.568 55.4157 120.568C56.2882 119.849 57.1607 118.926 57.8792 118.053C58.1872 118.669 58.9057 118.977 59.4189 119.387C60.3427 119.798 61.3178 120.619 62.4469 120.414C62.0877 120.516 61.7797 120.721 61.5231 121.029C61.3692 121.388 61.4205 121.85 60.9586 122.004C60.9586 122.62 61.5745 123.236 62.0364 123.749ZM58.3411 114.051C58.3411 114.154 58.4951 114.308 58.6491 114.205C58.803 114 58.3411 113.692 58.6491 113.59C58.8543 113.795 58.7517 114.205 58.8543 114.462C58.957 114.616 59.0083 114.77 58.957 114.924C58.5977 115.334 58.1358 115.693 57.9305 116.155C57.7252 115.591 57.212 115.129 57.0067 114.564C56.6475 113.897 56.4422 113.179 56.1342 112.563C56.4422 112.923 57.212 112.512 57.212 113.23C57.2633 113.282 57.3147 113.23 57.4173 113.23C57.52 113.128 57.52 113.128 57.6739 113.179C57.7252 113.282 58.0332 113.384 57.7766 113.487C57.8279 113.743 58.0845 114 58.3411 114.051ZM63.884 95.3749C63.2168 95.2209 62.6009 95.4775 61.9337 95.5288C59.1623 96.0932 56.5961 97.2733 54.4919 99.2743L54.3893 99.0178C53.5681 98.2482 52.7983 97.2733 51.8745 96.7089C52.6443 96.2471 53.3628 95.5288 54.1327 95.0157C57.0067 93.066 60.2401 91.9885 63.8327 91.7832C63.73 92.9633 63.8327 94.1948 63.884 95.3749ZM49.8215 109.793L49.5136 109.69L46.1263 109.741C46.4342 105.944 47.4607 102.455 49.6676 99.4796L51.002 97.7864V97.5298C51.7718 98.4534 52.6956 99.3256 53.6194 100.147C51.1559 102.763 49.9242 105.944 49.6676 109.433C49.7189 109.587 49.7189 109.741 49.8215 109.793ZM47.3067 115.539C46.9475 115.591 47.0501 115.95 46.9475 116.155C46.9988 115.283 46.5882 114.462 46.4856 113.59L46.229 111.332L46.075 111.127C47.1528 111.281 48.3845 111.178 49.5136 111.229L49.7702 111.127C49.6676 111.691 49.6676 112.461 50.0268 112.923C49.8729 112.769 49.6676 112.358 49.3596 112.358C48.7438 112.409 48.6924 113.23 48.0252 113.23C47.512 113.641 47.4094 114.257 47.3067 114.872C47.5633 115.026 47.1528 115.283 47.3067 115.539ZM51.0533 111.281L50.8993 110.973C51.2586 111.229 51.6692 111.178 52.0797 111.075C51.4639 111.281 51.7205 111.999 51.4639 112.461C51.4125 112.666 51.7718 112.769 51.7205 112.974C51.4125 113.128 51.3612 113.436 51.2586 113.692C51.4125 112.871 51.1046 112.102 51.0533 111.281ZM64.0379 129.136L63.6787 128.88C59.0596 128.623 55.1078 126.725 51.6692 123.749C52.2337 123.697 52.439 124.416 53.0549 124.262C53.7221 124.21 54.2353 123.646 54.9538 123.749C55.3131 123.749 55.7237 123.749 55.929 123.39C56.0316 123.03 55.621 122.825 55.5697 122.517C57.9305 124.262 60.548 125.391 63.576 125.493L63.884 125.391V128.674L64.0379 129.136ZM64.6025 106.15L64.8078 106.252C64.5512 106.252 64.2432 106.098 64.0379 106.304C63.884 106.406 63.9866 106.612 64.0379 106.765C64.4999 106.919 64.6025 107.689 65.167 107.381C65.4237 107.432 65.7316 107.484 65.8342 107.74C66.1935 107.894 66.2448 108.51 66.7067 108.356C66.7067 108.613 66.6041 109.023 66.912 109.177C66.8607 109.382 66.5528 109.485 66.5528 109.741C66.5014 109.793 66.4501 109.947 66.5014 110.049C66.9633 110.101 66.912 110.614 67.1686 110.921C67.066 111.281 67.1686 111.64 67.5279 111.845C67.4766 112.255 67.2713 112.615 67.1173 112.974C66.6554 113.23 65.8342 112.615 65.6803 113.487C65.4237 113.795 65.629 114.462 65.1157 114.462C64.0893 114.513 63.1655 114.308 62.3956 113.743C62.9088 113.487 63.7813 113.846 63.9353 113.076C64.0893 112.974 64.1406 112.769 64.0379 112.615C64.2946 112.358 64.3459 112.05 64.4999 111.794C64.2946 111.588 64.3972 111.486 64.4485 111.281C63.9353 110.768 63.2681 111.024 62.6009 111.024C62.1903 111.229 62.6009 111.691 62.3443 111.948C61.8311 111.999 61.8311 112.512 61.4718 112.769C61.2665 112.666 61.1126 112.409 61.1126 112.204H61.1639C61.1126 112.307 61.2152 112.409 61.2665 112.409C61.7284 112.461 61.5745 111.948 61.7284 111.691C61.7797 111.383 62.4983 110.973 61.9337 110.768C61.8824 110.665 61.985 110.46 61.8311 110.408C61.6771 110.46 61.3692 110.46 61.3692 110.768C61.4718 110.973 61.3692 111.229 61.1639 111.383H61.0612C61.1126 111.229 61.0099 111.127 60.9073 111.075C60.5993 111.075 60.394 111.281 60.0861 111.229C59.6755 111.332 59.2649 111.383 58.8543 111.383C58.803 111.127 59.1623 111.229 59.2649 111.024C59.2136 110.665 59.4702 110.408 59.6242 110.152C59.7268 110.049 59.9321 110.101 60.0348 110.152C60.1374 110.254 60.2401 110.357 60.394 110.306L60.4967 110.101C60.8559 110.306 60.6506 111.383 61.3692 110.921C61.4718 110.46 61.3692 109.895 61.5745 109.485C61.4205 109.074 61.8311 108.92 61.9337 108.664C62.293 108.715 62.293 108.253 62.4469 108.048C63.0115 107.894 63.6274 107.74 64.0379 107.125C63.884 106.817 63.9866 106.355 63.73 106.098C63.9866 106.047 64.3972 105.944 64.6025 106.15ZM66.7067 91.8859C68.8623 92.1424 70.8126 92.7581 72.7115 93.6304C73.0194 94.0408 73.5327 94.2974 73.6353 94.8105C73.3274 95.5801 74.6618 95.5288 74.0459 96.2984C73.9946 96.555 74.1999 96.6576 74.3025 96.8628C74.3538 97.0681 74.2512 97.3759 74.5078 97.5298C74.9697 97.6325 75.1237 97.0167 75.5856 97.1707C76.1501 97.5811 76.3041 98.2995 76.3041 98.9152C76.3554 99.3256 76.7147 99.5822 77.0739 99.7361C77.7924 99.5309 77.4845 100.352 77.9464 100.557C78.511 100.608 78.8189 101.378 79.4348 101.275C79.9993 101.686 80.3073 102.302 80.8205 102.763C80.8205 102.866 80.8718 102.969 80.9745 103.02C81.2824 103.071 81.4364 102.866 81.693 102.866C82.6681 104.816 83.13 106.971 83.284 109.28L83.3866 109.536C82.2062 109.536 80.9745 109.536 79.7427 109.639C79.6914 108.92 79.7427 108.202 79.3835 107.638C79.5887 107.279 79.6401 106.765 79.5887 106.355C79.5374 106.15 79.3321 106.355 79.2808 106.355C78.8702 106.714 78.8189 107.279 78.6136 107.74C78.2543 108.202 78.203 108.972 78.4083 109.485L78.5623 109.639H77.1766C77.5358 109.433 76.8686 109.023 77.2279 108.664L77.8438 108.561C78.0491 108.099 78.5623 107.792 78.511 107.227C78.7676 106.868 79.0242 106.458 78.8189 105.996C78.511 105.329 79.3321 104.61 78.7163 103.995C78.7676 103.79 78.6649 103.533 78.4083 103.533C78.203 103.482 77.9977 103.533 77.9977 103.276C78.1004 103.123 78.4083 102.917 78.3057 102.661C78.1517 102.455 77.9464 102.661 77.7411 102.609C77.6898 102.302 78.2544 101.994 77.7411 101.737C77.3819 101.686 77.2279 102.096 76.8686 101.942C76.7147 101.84 76.612 101.583 76.766 101.429L76.0475 100.506C75.9961 100.403 75.7395 100.557 75.7395 100.403C75.7909 99.6848 74.9184 99.2743 74.867 98.556C74.6104 98.2995 74.8157 97.8377 74.4565 97.6325C74.2512 97.4785 74.0459 97.3246 73.7379 97.4272C73.43 96.9654 73.0708 96.555 72.6602 96.1445C72.5575 96.0932 72.4549 96.1958 72.4036 96.2471C72.4549 96.6063 72.8655 96.8115 72.8655 97.1707C72.8141 97.1707 72.7628 97.1707 72.7115 97.222C72.7628 97.5811 73.0708 97.889 73.276 98.0942C71.3258 96.6063 69.0163 95.8366 66.6041 95.4262C66.1422 95.4262 65.629 95.2209 65.167 95.3749C65.2697 94.2974 65.2184 93.066 65.2184 91.9372L65.1157 91.6806C65.6803 91.9372 66.1935 91.7832 66.7067 91.8859ZM67.6819 86.9089C72.6602 87.5759 77.0739 89.577 80.8205 93.1173L80.4099 93.2712C79.7427 93.9895 78.9215 94.6052 78.5623 95.4262C78.511 95.1696 78.1517 95.0157 78.0491 94.8105C77.9977 94.1434 77.3305 93.4764 76.7147 93.1173C76.2528 93.0147 76.0988 92.2963 75.5342 92.5016C75.021 92.0911 74.4051 92.3989 73.9432 92.6042V92.6555C71.5824 91.3215 68.9649 90.5005 66.1422 90.2953C65.9882 90.2953 65.9369 90.3979 65.7829 90.3979C65.9369 90.2953 65.8342 89.9874 65.8342 89.8335C65.7829 89.7309 65.629 89.577 65.4237 89.6796C65.3723 89.7822 65.321 89.8848 65.321 89.9874C65.3723 88.9099 65.4237 87.5246 65.2697 86.5497C65.9882 86.8576 66.8607 86.755 67.6819 86.9089ZM69.9914 118.874C71.0692 118.977 72.0956 119.234 73.0707 119.593C73.3274 119.593 73.584 119.593 73.7379 119.387C73.6866 118.977 74.1485 118.772 74.0972 118.361C74.3025 118.002 74.1485 117.54 74.4565 117.232C74.5078 116.822 74.4565 116.309 74.1485 116.001C73.8919 115.847 73.6353 116.052 73.3787 116.104C73.0708 116.309 73.1734 116.976 72.6602 116.822C72.5575 116.976 72.3009 116.976 72.1469 116.925C72.0956 116.873 72.0443 116.873 72.0443 116.771C72.4036 116.565 73.0708 116.719 73.1221 116.104C73.3787 115.847 73.8406 115.95 74.0972 115.693C74.3025 115.385 74.3538 115.129 74.6104 114.872C74.6104 114.77 74.6618 114.616 74.6618 114.513C74.7131 114.667 74.7131 114.924 74.9697 115.026C75.2776 115.129 75.3803 114.872 75.4829 114.667C75.4829 114.564 75.5342 114.41 75.6369 114.513C75.9448 114.77 76.3554 114.564 76.7147 114.564C77.0226 114.462 77.3819 114.41 77.6898 114.41C77.3819 115.796 76.7147 117.027 75.8935 118.259C75.5856 118.618 75.329 119.028 74.9697 119.439C74.867 119.131 74.867 118.772 74.6104 118.515L74.4565 118.566C74.2512 118.977 73.8406 119.285 73.8919 119.747C73.584 120.208 72.8655 119.798 72.4036 120.054C71.8903 120.208 71.5824 119.695 71.1718 119.593C70.7099 119.387 70.1454 119.387 69.7348 119.131C69.8374 118.977 69.8887 118.874 69.9914 118.874ZM73.3787 100.506C72.7115 101.224 71.8903 101.942 71.3258 102.712L71.2231 102.455C69.5808 101.121 67.7332 100.454 65.6803 100.198L65.3723 100.249V96.9141L65.2697 96.6576C66.6554 96.8628 67.9898 97.0681 69.2729 97.4785C70.8639 98.0429 72.3522 98.9152 73.7379 100.044L74.0459 100.147L73.3787 100.506ZM78.5623 111.024C78.357 111.691 78.357 112.461 78.203 113.128C78.1517 113.23 78.1517 113.384 78.1004 113.487C77.8951 113.076 77.6898 112.512 77.2279 112.255C76.8173 112.05 77.0739 111.486 76.7147 111.229L76.3554 110.87C76.92 111.127 77.7924 111.075 78.5623 111.024ZM76.3554 104.457C76.766 104.559 77.0226 105.021 77.4332 105.124C77.7924 105.688 77.9464 106.355 78.1517 106.971C77.7924 107.33 77.7924 108.151 77.0739 108.048C76.92 107.638 77.3819 107.432 77.2792 107.022C77.3819 106.919 77.5872 106.868 77.6385 106.663C77.5872 106.304 77.1252 106.355 77.0739 105.996C76.92 105.791 76.6633 105.791 76.4581 105.739C75.9962 105.534 75.5342 106.714 75.4316 105.739C75.5856 105.637 75.6882 105.431 75.5342 105.277C75.1237 105.072 75.0723 104.508 74.6618 104.251C74.0459 104.251 73.4813 103.995 72.9168 104.149C72.5575 104.046 72.0956 103.79 71.7877 104.2C71.7877 104.508 71.5824 104.764 71.5311 105.072C71.3771 105.021 71.2745 104.867 71.1718 104.713C72.2496 103.482 73.5327 102.25 74.6618 101.07L74.7131 100.916C75.2776 101.635 75.9448 102.353 76.3554 103.123C76.5094 103.636 75.5856 104.149 76.3554 104.457ZM69.3755 116.309C69.3755 116.771 68.7083 116.719 68.4004 117.027C68.2464 116.976 68.3491 116.771 68.4004 116.668C68.7083 116.514 68.9136 116.258 69.3755 116.309ZM68.2977 106.047C68.0924 106.098 67.8872 106.252 67.6819 106.15C67.4766 105.944 67.22 105.637 66.8607 105.585C66.6041 105.637 66.4501 105.944 66.1935 105.791C66.6554 105.329 67.4252 105.226 67.7845 104.559C67.8872 104.251 67.9898 103.892 67.9385 103.584C67.8358 103.43 67.6305 103.276 67.4766 103.43C67.22 103.841 66.6554 103.943 66.3988 104.354L65.5263 104.046C65.3723 103.225 65.5776 102.199 65.3723 101.481C65.8342 101.635 66.3475 101.686 66.8607 101.788C68.1438 102.096 69.2729 102.712 70.402 103.379C70.1454 103.482 69.8887 103.79 69.6834 103.995C69.6834 104.2 69.9401 104.149 69.9914 104.303L70.248 104.2C69.7348 105.175 68.4517 105.021 68.2977 106.047ZM75.2263 125.288C74.5591 124.672 75.6369 124.21 75.8422 123.646C75.7395 123.082 75.0723 122.723 74.6104 122.569C74.3538 122.415 74.4565 122.158 74.4565 121.953C74.6618 121.748 74.9184 121.542 75.021 121.235L75.1237 121.491L76.6633 123.082C76.6633 123.441 76.7147 123.749 77.0739 123.903C77.2279 123.954 77.4332 123.851 77.5872 123.903H77.4845C76.8173 124.621 76.0475 125.185 75.2776 125.75L75.1237 126.006C74.9697 125.698 75.4316 125.544 75.2263 125.288ZM78.1517 121.696C77.8438 121.388 77.8438 120.824 77.2792 120.824C77.0739 120.824 77.0226 120.978 77.0226 121.132C77.0226 121.235 77.0739 121.337 76.9713 121.388L75.8422 120.414C76.3554 120.157 76.766 119.439 77.1766 118.926C78.203 117.489 78.8189 115.847 79.3321 114.205C79.4861 114.359 79.7427 114.359 79.8967 114.257C80.0506 114.103 80.102 113.846 79.9993 113.692L79.6401 113.179C79.6914 112.409 79.8967 111.691 79.794 110.973L80.0506 111.075C81.1797 111.075 82.3602 111.127 83.4893 111.024L83.3353 111.229C83.0274 115.693 81.4877 119.747 78.357 123.03C78.511 122.569 78.1004 122.158 78.1517 121.696ZM88.2623 108.305C88.3136 108.715 88.211 109.228 88.4676 109.587L84.875 109.639C84.7723 109.69 84.6697 109.741 84.5671 109.741L84.6697 109.587C84.6184 106.765 83.8485 104.251 82.7708 101.891C82.7194 100.814 81.693 100.095 81.2824 99.1717C80.5125 98.6073 80.2559 97.6838 79.3321 97.1707C79.1782 96.9654 79.0755 96.6576 78.8189 96.6063L79.2295 96.5037C80.102 95.6314 81.0258 94.7592 81.693 93.8356C85.4395 98.0429 87.8004 102.763 88.2623 108.305ZM87.0819 99.5309C83.0274 90.8597 74.0972 85.3696 64.7565 85.3696C60.6506 85.4209 56.9041 86.3445 53.4655 88.0377C47.3581 90.9623 42.3797 97.2733 40.6861 103.533C37.966 114.103 41.6612 124.775 50.694 130.983C57.212 135.652 67.5792 136.525 74.9184 132.984C81.4364 130.265 86.9792 123.543 88.6729 116.925C90.3665 111.383 89.648 104.508 87.0819 99.5309Z" fill="white"/>
<path d="M75.7393 91.732C75.7393 91.8859 75.7393 91.9886 75.8419 92.0912C76.3551 92.2964 76.4065 93.0147 77.0736 92.8608C77.2789 92.6556 76.971 92.399 77.0223 92.0912C76.9197 91.8346 76.7144 91.732 76.4578 91.6294C76.1498 91.9372 75.9445 91.4755 75.7393 91.732Z" fill="white"/>
<path d="M65.8343 89.6282C66.5015 90.4492 67.6306 89.9874 68.4518 89.8335C69.0676 90.09 69.6322 89.7822 70.0428 89.423V89.3204C69.6322 88.7047 68.811 88.6534 68.0925 88.6021L66.2962 89.3717C66.1422 89.3204 65.8856 89.2178 65.783 89.423C65.7317 89.5256 65.783 89.5769 65.8343 89.6282Z" fill="white"/>
</svg>
