<svg xmlns="http://www.w3.org/2000/svg" viewBox="0 0 1000 500">
  <!-- Background -->
  <rect width="1000" height="500" fill="#f8fafc" rx="10"/>

  <!-- Ground Truth Flow -->
  <g transform="translate(100, 80)">
    <!-- Documents -->
    <rect x="0" y="0" width="120" height="60" fill="#e0f2fe" stroke="#0ea5e9" stroke-width="2" rx="8"/>
    <text x="60" y="35" text-anchor="middle" fill="#0369a1" font-size="14">Ground Truth Documents</text>

    <!-- Embedding Generation -->
    <rect x="200" y="0" width="120" height="60" fill="#dbeafe" stroke="#3b82f6" stroke-width="2" rx="8"/>
    <text x="260" y="25" text-anchor="middle" fill="#1d4ed8" font-size="14">Embedding</text>
    <text x="260" y="45" text-anchor="middle" fill="#1d4ed8" font-size="14">Generation</text>

    <!-- Vector DB -->
    <rect x="400" y="0" width="120" height="60" fill="#e0e7ff" stroke="#6366f1" stroke-width="2" rx="8"/>
    <text x="460" y="35" text-anchor="middle" fill="#4338ca" font-size="14">Vector Database</text>

    <!-- Arrows -->
    <path d="M125,30 L195,30" stroke="#94a3b8" stroke-width="2" marker-end="url(#arrowhead)"/>
    <path d="M325,30 L395,30" stroke="#94a3b8" stroke-width="2" marker-end="url(#arrowhead)"/>
  </g>

  <!-- Query Flow -->
  <g transform="translate(100, 260)">
    <!-- User Question -->
    <rect x="0" y="0" width="120" height="60" fill="#fae8ff" stroke="#d946ef" stroke-width="2" rx="8"/>
    <text x="60" y="35" text-anchor="middle" fill="#a21caf" font-size="14">User Question</text>

    <!-- Query Embedding -->
    <rect x="200" y="0" width="120" height="60" fill="#f3e8ff" stroke="#a855f7" stroke-width="2" rx="8"/>
    <text x="260" y="25" text-anchor="middle" fill="#7e22ce" font-size="14">Query</text>
    <text x="260" y="45" text-anchor="middle" fill="#7e22ce" font-size="14">Embedding</text>

    <!-- Similarity Search -->
    <rect x="400" y="0" width="120" height="60" fill="#ede9fe" stroke="#8b5cf6" stroke-width="2" rx="8"/>
    <text x="460" y="25" text-anchor="middle" fill="#6d28d9" font-size="14">Cosine</text>
    <text x="460" y="45" text-anchor="middle" fill="#6d28d9" font-size="14">Similarity</text>

    <!-- Results -->
    <rect x="600" y="0" width="120" height="60" fill="#fae8ff" stroke="#d946ef" stroke-width="2" rx="8"/>
    <text x="660" y="25" text-anchor="middle" fill="#a21caf" font-size="14">Top 10</text>
    <text x="660" y="45" text-anchor="middle" fill="#a21caf" font-size="14">Matches</text>

    <!-- Arrows -->
    <path d="M125,30 L195,30" stroke="#94a3b8" stroke-width="2" marker-end="url(#arrowhead)"/>
    <path d="M325,30 L395,30" stroke="#94a3b8" stroke-width="2" marker-end="url(#arrowhead)"/>
    <path d="M525,30 L595,30" stroke="#94a3b8" stroke-width="2" marker-end="url(#arrowhead)"/>
  </g>

  <!-- Connection between flows -->
  <path d="M560,110 L560,260" stroke="#94a3b8" stroke-width="2" stroke-dasharray="5,5"/>

  <!-- Arrowhead marker -->
  <defs>
    <marker id="arrowhead" markerWidth="10" markerHeight="7" refX="9" refY="3.5" orient="auto">
      <polygon points="0 0, 10 3.5, 0 7" fill="#94a3b8"/>
    </marker>
  </defs>

  <!-- Labels -->
  <text x="500" y="40" text-anchor="middle" fill="#1e293b" font-size="20" font-weight="bold">RAG Pipeline Flow</text>

  <!-- Process Labels -->
  <g transform="translate(50, 185)">
    <text x="0" y="0" fill="#475569" font-size="16">Storage Process</text>
  </g>
  <g transform="translate(50, 365)">
    <text x="0" y="0" fill="#475569" font-size="16">Query Process</text>
  </g>
</svg>
